<?xml version="1.0" encoding="UTF-8"?>
<!-- Created with Inkscape (http://www.inkscape.org/) -->
<svg width="25.585mm" height="11.985mm" version="1.1" viewBox="0 0 25.585 11.985" xmlns="http://www.w3.org/2000/svg">
 <g transform="translate(-109.04 -129.17)">
  <path transform="matrix(.26458 0 0 .26458 109.04 129.17)" d="m8.6426 8.3223-0.94727 5.3203h10.301l-4.0977 23.48h4.6582l4.0996-23.48h10.266l0.94531-5.3203zm27.959 0-5.0449 28.801h20.32c0.88758 0 1.7509-0.25505 2.5918-0.76172s1.5547-1.1733 2.1387-2c0.58394-0.85333 0.96939-1.7855 1.1562-2.7988l1.0859-6.2012c0.11679-0.66666 0.10499-1.3333-0.03516-2-0.11679-0.66666-0.32721-1.3066-0.63086-1.9199 0.18686-0.29333 0.32649-0.59992 0.41992-0.91992s0.17602-0.65333 0.24609-1l0.98047-5.6387c0.18686-1.0133 0.12786-1.9331-0.17578-2.7598-0.30364-0.85333-0.78154-1.5344-1.4355-2.041-0.63065-0.50667-1.3898-0.75977-2.2773-0.75977zm33.809 0c-0.88758 0-1.7509 0.2531-2.5918 0.75977-0.81751 0.50667-1.5176 1.1877-2.1016 2.041-0.58394 0.82666-0.96939 1.7464-1.1562 2.7598l-1.0176 5.9199c-0.18686 1.04-0.13966 1.9865 0.14062 2.8398 0.30365 0.82666 0.78349 1.4933 1.4375 2s1.4249 0.75977 2.3125 0.75977h15.275c0.11679 0 0.19743 0.03914 0.24414 0.11914 0.07007 0.08 0.09367 0.18698 0.07031 0.32031l-0.94531 5.4805c-0.02336 0.13333-0.08235 0.25271-0.17578 0.35938-0.09343 0.08-0.19767 0.12109-0.31445 0.12109h-15.102c-0.11679 0-0.20922-0.04109-0.2793-0.12109-0.07007-0.10667-0.09367-0.22604-0.07031-0.35938l0.34961-1.9609h-4.625l-0.38477 2.2012c-0.18686 1.0133-0.12786 1.9455 0.17578 2.7988 0.30365 0.82666 0.76974 1.4933 1.4004 2 0.65401 0.50666 1.4249 0.76172 2.3125 0.76172h15.486c0.88758 0 1.7391-0.25505 2.5566-0.76172 0.84087-0.50666 1.5547-1.1733 2.1387-2 0.58394-0.85333 0.96939-1.7855 1.1562-2.7988l1.0156-5.9199c0.18686-1.04 0.12786-1.9741-0.17578-2.8008-0.28029-0.85333-0.74638-1.5324-1.4004-2.0391-0.65401-0.50666-1.4249-0.75976-2.3125-0.75976h-15.311c-0.11679 0-0.21118-0.04109-0.28125-0.12109-0.04672-0.08-0.05851-0.18698-0.03516-0.32031l0.94531-5.4785c0.02336-0.13333 0.08235-0.24031 0.17578-0.32031 0.09343-0.10667 0.19962-0.16016 0.31641-0.16016h15.1c0.11679 0 0.21118 0.05349 0.28125 0.16016 0.07007 0.08 0.09367 0.18698 0.07031 0.32031l-0.35156 1.959h4.6602l0.38476-2.1992c0.18686-1.0133 0.12982-1.9331-0.17383-2.7598-0.30364-0.85333-0.78349-1.5344-1.4375-2.041-0.63065-0.50667-1.3898-0.75977-2.2773-0.75977zm-29.711 5.3203h14.086c0.11679 0 0.19743 0.05349 0.24414 0.16016 0.07007 0.08 0.09367 0.18698 0.07031 0.32031l-0.91016 5.1992c-0.02336 0.13333-0.08235 0.25271-0.17578 0.35938-0.07007 0.08-0.16251 0.12109-0.2793 0.12109h-14.086c-0.11679 0-0.20922-0.04109-0.2793-0.12109-0.07007-0.10667-0.09367-0.22604-0.07031-0.35938l0.91016-5.1992c0.02336-0.13333 0.08235-0.24031 0.17578-0.32031 0.09343-0.10667 0.19767-0.16016 0.31445-0.16016zm-1.9961 11.48h15.066c0.11679 0 0.20922 0.05154 0.2793 0.1582 0.09343 0.08 0.12883 0.18698 0.10547 0.32031l-1.0156 5.7207c-0.02336 0.13333-0.09415 0.25271-0.21094 0.35938-0.09343 0.08-0.19767 0.12109-0.31445 0.12109h-15.066c-0.11679 0-0.20922-0.04109-0.2793-0.12109-0.07007-0.10667-0.09367-0.22604-0.07031-0.35938l1.0156-5.7207c0.02336-0.13333 0.08235-0.24031 0.17578-0.32031 0.09343-0.10667 0.19767-0.1582 0.31445-0.1582z" fill="#f9f9f9"/>
 </g>
</svg>
