<?xml version="1.0" encoding="UTF-8"?>
<!-- Created with Inkscape (http://www.inkscape.org/) -->
<svg width="25.585mm" height="11.985mm" version="1.1" viewBox="0 0 25.585 11.985" xmlns="http://www.w3.org/2000/svg">
 <g transform="translate(-109.04 -129.17)">
  <rect x="109.04" y="129.17" width="25.585" height="11.985" ry="3.6044" fill="#00f" stroke-linecap="round" stroke-linejoin="round" stroke-width=".37836" style="paint-order:markers stroke fill"/>
  <g transform="matrix(.9359 0 0 1.0685 -3.5828e-6 -2.671e-7)" fill="#f9f9f9" stroke-width=".24762" aria-label="TBS">
   <path d="m120.43 130.08 1.1589-5.8142h-2.912l0.26743-1.3174h7.1315l-0.26743 1.3174h-2.9021l-1.1589 5.8142z"/>
   <path d="m125.42 130.08 1.4263-7.1315h5.4675q0.37639 0 0.64382 0.18819 0.27733 0.18819 0.4061 0.50515 0.12876 0.30705 0.0495 0.68344l-0.27733 1.3966q-0.0297 0.12876-0.0693 0.24762t-0.11886 0.22781q0.12877 0.22782 0.17829 0.47544 0.0594 0.24762 0.01 0.49524l-0.30706 1.5353q-0.0792 0.37639-0.32686 0.69334-0.24762 0.30705-0.6042 0.49525-0.35657 0.18819-0.73296 0.18819h-5.7448zm1.6937-1.3174h4.2591q0.0495 0 0.0891-0.0297 0.0495-0.0396 0.0594-0.0891l0.28724-1.4164q0.01-0.0495-0.0297-0.0792-0.0297-0.0396-0.0792-0.0396h-4.2591q-0.0495 0-0.0891 0.0396-0.0396 0.0297-0.0495 0.0792l-0.28725 1.4164q-0.01 0.0495 0.0198 0.0891 0.0297 0.0297 0.0792 0.0297zm0.5943-2.9715h3.9818q0.0495 0 0.0792-0.0297 0.0396-0.0396 0.0495-0.0892l0.25752-1.2876q0.01-0.0495-0.0198-0.0792-0.0198-0.0396-0.0693-0.0396h-3.9818q-0.0495 0-0.0891 0.0396-0.0396 0.0297-0.0495 0.0792l-0.25752 1.2876q-0.01 0.0495 0.0198 0.0892 0.0297 0.0297 0.0792 0.0297z"/>
   <path d="m134.98 130.08q-0.37638 0-0.65372-0.18819-0.26743-0.1882-0.39619-0.49525-0.12877-0.31695-0.0495-0.69334l0.10896-0.54477h1.3074l-0.0991 0.48534q-0.01 0.0495 0.0198 0.0891 0.0297 0.0297 0.0792 0.0297h4.269q0.0495 0 0.0891-0.0297 0.0396-0.0396 0.0495-0.0891l0.26743-1.357q0.01-0.0495-0.0198-0.0792-0.0198-0.0297-0.0693-0.0297h-4.3185q-0.37638 0-0.65372-0.1882-0.27734-0.18819-0.4061-0.49524-0.11886-0.31696-0.0396-0.70325l0.28724-1.4659q0.0792-0.37639 0.32686-0.68344 0.24763-0.31696 0.5943-0.50515 0.35657-0.18819 0.73296-0.18819h4.378q0.37639 0 0.64382 0.18819 0.27733 0.18819 0.4061 0.50515 0.12876 0.30705 0.0495 0.68344l-0.10895 0.54477h-1.3174l0.0991-0.48534q0.01-0.0495-0.0198-0.0792-0.0297-0.0396-0.0792-0.0396h-4.269q-0.0495 0-0.0891 0.0396-0.0396 0.0297-0.0495 0.0792l-0.26743 1.357q-0.01 0.0495 0.01 0.0792 0.0297 0.0297 0.0792 0.0297h4.3284q0.37639 0 0.65372 0.18819 0.27734 0.1882 0.3962 0.50515 0.12876 0.30706 0.0495 0.69335l-0.28724 1.4659q-0.0792 0.37639-0.32686 0.69334-0.24762 0.30705-0.6042 0.49525-0.34667 0.18819-0.72305 0.18819z"/>
  </g>
 </g>
</svg>
